<svg width="256" height="256" viewBox="0 0 256 256" fill="none" xmlns="http://www.w3.org/2000/svg">
<g clip-path="url(#clip0_1_14)">
<path d="M256 0H0V256H256V0Z" fill="#1E73F0"/>
<path d="M228.05 91.32C222.79 106.39 217.52 121.45 212.26 136.52C209.46 127.48 206.65 118.44 203.85 109.4H198.14C195.34 118.44 192.53 127.48 189.73 136.52L180.24 109.4H173.4L186.55 147.09H192.86C195.58 138.48 198.29 129.87 201 121.26C203.72 129.87 206.42 138.48 209.14 147.09H215.45C221.25 130.5 227.04 113.92 232.84 97.34H240.42V158.67H65.54C64.65 160.68 63.77 162.67 62.89 164.68H246.42V91.32H228.05Z" fill="white"/>
<path d="M90.22 147.08H97.02L80.41 109.39H73.61C66.37 125.81 59.12 142.23 51.88 158.66H15.6V97.33H219.09C219.79 95.32 220.49 93.32 221.19 91.32H9.58V164.67H56.1C63.07 148.81 70.05 132.96 77.02 117.1C81.42 127.1 85.82 137.09 90.22 147.08Z" fill="white"/>
<path d="M40.35 109.39H27.41V147.08H33.77V136.03H40.45C45.99 136.03 50.09 134.97 52.77 132.85C55.45 130.73 56.78 127.39 56.78 122.82C56.78 118.26 55.46 114.88 52.84 112.68C50.23 110.49 46.06 109.39 40.35 109.39ZM48.36 128.24C47.08 129.58 44.68 130.27 41.16 130.27H33.78V115.18H40.25C43.7 115.18 46.23 115.72 47.86 116.79C49.47 117.86 50.29 119.71 50.29 122.32C50.27 124.91 49.64 126.89 48.36 128.24Z" fill="white"/>
<path d="M110.34 118.43C112.93 115.97 116.13 114.73 119.94 114.73C122.1 114.73 123.97 115.08 125.58 115.76C127.18 116.44 128.88 117.65 130.68 119.37L134.72 114.95C130.8 110.64 125.92 108.48 120.08 108.48C114.24 108.48 109.4 110.35 105.57 114.09C101.74 117.83 99.83 122.5 99.83 128.11C99.83 133.72 101.71 138.36 105.47 142.02C109.22 145.69 113.96 147.52 119.65 147.52C125.34 147.52 130.19 145.31 134.18 140.89L130.08 136.68C128.35 138.29 126.7 139.48 125.12 140.22C123.53 140.96 121.65 141.32 119.45 141.32C115.93 141.32 112.88 140.03 110.31 137.46C107.74 134.89 106.45 131.69 106.45 127.86C106.46 124.03 107.75 120.89 110.34 118.43Z" fill="white"/>
<path d="M167.01 109.39H141.94V115.32H167.01V109.39Z" fill="white"/>
<path d="M141.94 125.68C141.94 132.81 141.94 139.95 141.94 147.08H148.31V131.55H165.03C165.03 129.59 165.03 127.63 165.03 125.67C157.32 125.68 149.63 125.68 141.94 125.68Z" fill="white"/>
</g>
<defs>
<clipPath id="clip0_1_14">
<rect width="256" height="256" fill="white"/>
</clipPath>
</defs>
</svg>
